<?xml version="1.0" standalone="no"?>
<!DOCTYPE svg PUBLIC "-//W3C//DTD SVG 1.1//EN" "http://www.w3.org/Graphics/SVG/1.1/DTD/svg11.dtd">
<svg xmlns="http://www.w3.org/2000/svg" xmlns:xlink="http://www.w3.org/1999/xlink" 
    width="100%" 
    height="100%" 
    class="icon"
    p-id="1998" 
    style="cursor: pointer;" 
    t="1558062165503" 
    version="1.1"
    viewBox="0 0 1120 1120">
    <defs>
        <style type="text/css"/>
    </defs>
    <g transform="translate(60,60)">
        <circle cx="500" cy="500" r="560" fill="red"/>
        <g transform="translate(-5, 30)">
            <path 
                fill="white" 
                d="M914.16 708.576q0 15.424-5.728 40.288t-12 39.136q-12 28.576-69.728 60.576-53.728 29.152-106.272 29.152-15.424 0-30.016-2.016t-32.864-7.136-27.136-8.288-31.712-11.712-28-10.272q-56-20-100-47.424-73.152-45.152-151.136-123.136t-123.136-151.136q-27.424-44-47.424-100-1.728-5.152-10.272-28t-11.712-31.712-8.288-27.136-7.136-32.864-2.016-30.016q0-52.576 29.152-106.272 32-57.728 60.576-69.728 14.272-6.272 39.136-12t40.288-5.728q8 0 12 1.728 10.272 3.424 30.272 43.424 6.272 10.848 17.152 30.848t20 36.288 17.728 30.56q1.728 2.272 10.016 14.272t12.288 20.288 4 16.288q0 11.424-16.288 28.576t-35.424 31.424-35.424 30.272-16.288 26.272q0 5.152 2.848 12.864t4.864 11.712 8 13.728 6.56 10.848q43.424 78.272 99.424 134.272t134.272 99.424q1.152 0.576 10.848 6.56t13.728 8 11.712 4.864 12.864 2.848q10.272 0 26.272-16.288t30.272-35.424 31.424-35.424 28.576-16.288q8 0 16.288 4t20.288 12.288 14.272 10.016q14.272 8.576 30.56 17.728t36.288 20 30.848 17.152q40 20 43.424 30.272 1.728 4 1.728 12z" 
                p-id="1999"
                transform="rotate(135, 500, 500)"/>
        </g>
    </g>
</svg>
